# xmcd
#
# Track frame offsets: 
#        150
#        15577
#        28830
#        48110
#        61690
#        76270
#        90985
#        108150
#        121172
#        136150
#        148425
#        163270
#
# Disc length: 2374 seconds
#
# Revision: 3
# Processed by: cddbd v1.5.2PL0 Copyright (c) Steve Scherf et al.
# Submitted via: ExactAudioCopy v1.0b1
#
DISCID=9109440c
DTITLE=Jason McCoy - Playin' For Keeps
DYEAR=1997
DGENRE=Country
TTITLE0=Born Again In Dixieland
TTITLE1=A Littler Bit Of You
TTITLE2=There's More Where That Came From
TTITLE3=Dare You To Do That To Me
TTITLE4=Heaven Help My Heart
TTITLE5=Out Of This Town Alive
TTITLE6=Perfect Disguise
TTITLE7=Doin' It Right
TTITLE8=This Could Take All Night
TTITLE9=Get A Real Job
TTITLE10=Forever And A Day
TTITLE11=I'm Gonna Make Her Mine
EXTD=
EXTT0=
EXTT1=
EXTT2=
EXTT3=
EXTT4=
EXTT5=
EXTT6=
EXTT7=
EXTT8=
EXTT9=
EXTT10=
EXTT11=
PLAYORDER=
